<?xml version="1.0" encoding="UTF-8"?>
<svg width="600" height="372" viewBox="0 0 600 372" xmlns="http://www.w3.org/2000/svg" role="img" aria-label="GitHub stats card">
  <defs>
    <linearGradient id="bg" x1="0" y1="0" x2="1" y2="1">
      <stop offset="0%" stop-color="#0d1117"/>
      <stop offset="100%" stop-color="#161b22"/>
    </linearGradient>
  </defs>
  <rect x="0.5" y="0.5" rx="16" ry="16" width="599" height="371" fill="url(#bg)" stroke="#30363d"/>
  <text x="24" y="36" fill="#f0f6fc" font-family="Segoe UI, Arial, sans-serif" font-size="22" font-weight="700">Arun-kushwaha007 • GitHub Snapshot</text>

  <rect x="24" y="54" width="176" height="84" rx="10" fill="#1f2937" stroke="#30363d"/>
  <text x="36" y="78" fill="#8b949e" font-family="Segoe UI, Arial, sans-serif" font-size="13">Total Commits</text>
  <text x="36" y="112" fill="#58a6ff" font-family="Segoe UI, Arial, sans-serif" font-size="28" font-weight="700">1,004</text>

  <rect x="212" y="54" width="176" height="84" rx="10" fill="#1f2937" stroke="#30363d"/>
  <text x="224" y="78" fill="#8b949e" font-family="Segoe UI, Arial, sans-serif" font-size="13">Current Streak</text>
  <text x="224" y="112" fill="#ff6b35" font-family="Segoe UI, Arial, sans-serif" font-size="28" font-weight="700">10 days</text>

  <rect x="400" y="54" width="176" height="84" rx="10" fill="#1f2937" stroke="#30363d"/>
  <text x="412" y="78" fill="#8b949e" font-family="Segoe UI, Arial, sans-serif" font-size="13">Longest Streak</text>
  <text x="412" y="112" fill="#ff6b35" font-family="Segoe UI, Arial, sans-serif" font-size="28" font-weight="700">84 days</text>

  <rect x="24" y="150" width="176" height="84" rx="10" fill="#111827" stroke="#30363d"/>
  <text x="36" y="174" fill="#8b949e" font-family="Segoe UI, Arial, sans-serif" font-size="13">Public Repos</text>
  <text x="36" y="208" fill="#7ee787" font-family="Segoe UI, Arial, sans-serif" font-size="28" font-weight="700">74</text>

  <rect x="212" y="150" width="176" height="84" rx="10" fill="#111827" stroke="#30363d"/>
  <text x="224" y="174" fill="#8b949e" font-family="Segoe UI, Arial, sans-serif" font-size="13">Followers</text>
  <text x="224" y="208" fill="#7ee787" font-family="Segoe UI, Arial, sans-serif" font-size="28" font-weight="700">15</text>

  <rect x="400" y="150" width="176" height="84" rx="10" fill="#111827" stroke="#30363d"/>
  <text x="412" y="174" fill="#8b949e" font-family="Segoe UI, Arial, sans-serif" font-size="13">Following</text>
  <text x="412" y="208" fill="#7ee787" font-family="Segoe UI, Arial, sans-serif" font-size="28" font-weight="700">36</text>

  <rect x="24" y="246" width="176" height="84" rx="10" fill="#1a2230" stroke="#30363d"/>
  <text x="36" y="270" fill="#8b949e" font-family="Segoe UI, Arial, sans-serif" font-size="13">Total Stars</text>
  <text x="36" y="304" fill="#d2a8ff" font-family="Segoe UI, Arial, sans-serif" font-size="28" font-weight="700">19</text>

  <rect x="212" y="246" width="176" height="84" rx="10" fill="#1a2230" stroke="#30363d"/>
  <text x="224" y="270" fill="#8b949e" font-family="Segoe UI, Arial, sans-serif" font-size="13">Total Forks</text>
  <text x="224" y="304" fill="#d2a8ff" font-family="Segoe UI, Arial, sans-serif" font-size="28" font-weight="700">6</text>

  <rect x="400" y="246" width="176" height="84" rx="10" fill="#1a2230" stroke="#30363d"/>
  <text x="412" y="270" fill="#8b949e" font-family="Segoe UI, Arial, sans-serif" font-size="13">Watchers</text>
  <text x="412" y="304" fill="#d2a8ff" font-family="Segoe UI, Arial, sans-serif" font-size="28" font-weight="700">19</text>

  <text x="24" y="354" fill="#8b949e" font-family="Segoe UI, Arial, sans-serif" font-size="12">Auto-generated from GitHub API • Updated: 2026-03-11 13:10 UTC</text>
</svg>