<?xml version="1.0" encoding="UTF-8"?>
<svg width="600" height="320" viewBox="0 0 600 320" xmlns="http://www.w3.org/2000/svg" role="img" aria-label="Top languages card">
  <defs>
    <linearGradient id="bg" x1="0" y1="0" x2="1" y2="1">
      <stop offset="0%" stop-color="#0d1117"/>
      <stop offset="100%" stop-color="#161b22"/>
    </linearGradient>
  </defs>
  <rect x="0.5" y="0.5" rx="16" ry="16" width="599" height="319" fill="url(#bg)" stroke="#30363d"/>
  <text x="28" y="42" fill="#f0f6fc" font-family="Segoe UI, Arial, sans-serif" font-size="24" font-weight="700">Arun-kushwaha007 • Top Languages</text>
  <rect x="28" y="70" width="544" height="18" rx="9" fill="#21262d"/>
  <rect x="28.00" y="70" width="180.53" height="18" fill="#58a6ff"/>
    <rect x="208.53" y="70" width="167.43" height="18" fill="#ff6b35"/>
    <rect x="375.95" y="70" width="58.97" height="18" fill="#3fb950"/>
    <rect x="434.92" y="70" width="41.75" height="18" fill="#d2a8ff"/>
    <rect x="476.67" y="70" width="36.64" height="18" fill="#f2cc60"/>
    <rect x="513.31" y="70" width="32.46" height="18" fill="#7ee787"/>
    <rect x="545.78" y="70" width="11.88" height="18" fill="#ffa657"/>
    <rect x="557.66" y="70" width="7.18" height="18" fill="#79c0ff"/>

  <rect x="28" y="121" width="10" height="10" rx="2" fill="#58a6ff"/>
    <text x="44" y="132" fill="#c9d1d9" font-family="Segoe UI, Arial, sans-serif" font-size="14">TypeScript 33.2%</text>
    <rect x="28" y="155" width="10" height="10" rx="2" fill="#ff6b35"/>
    <text x="44" y="166" fill="#c9d1d9" font-family="Segoe UI, Arial, sans-serif" font-size="14">JavaScript 30.8%</text>
    <rect x="28" y="189" width="10" height="10" rx="2" fill="#3fb950"/>
    <text x="44" y="200" fill="#c9d1d9" font-family="Segoe UI, Arial, sans-serif" font-size="14">HTML 10.8%</text>
    <rect x="28" y="223" width="10" height="10" rx="2" fill="#d2a8ff"/>
    <text x="44" y="234" fill="#c9d1d9" font-family="Segoe UI, Arial, sans-serif" font-size="14">C# 7.7%</text>
    <rect x="303" y="121" width="10" height="10" rx="2" fill="#f2cc60"/>
    <text x="319" y="132" fill="#c9d1d9" font-family="Segoe UI, Arial, sans-serif" font-size="14">Rust 6.7%</text>
    <rect x="303" y="155" width="10" height="10" rx="2" fill="#7ee787"/>
    <text x="319" y="166" fill="#c9d1d9" font-family="Segoe UI, Arial, sans-serif" font-size="14">CSS 6.0%</text>
    <rect x="303" y="189" width="10" height="10" rx="2" fill="#ffa657"/>
    <text x="319" y="200" fill="#c9d1d9" font-family="Segoe UI, Arial, sans-serif" font-size="14">ShaderLab 2.2%</text>
    <rect x="303" y="223" width="10" height="10" rx="2" fill="#79c0ff"/>
    <text x="319" y="234" fill="#c9d1d9" font-family="Segoe UI, Arial, sans-serif" font-size="14">Python 1.3%</text>

  <text x="28" y="286" fill="#8b949e" font-family="Segoe UI, Arial, sans-serif" font-size="13">Based on repo language bytes • Updated: 2026-09-05 03:39 UTC</text>
</svg>